<svg width="107" height="67" viewBox="0 0 107 67" fill="none" xmlns="http://www.w3.org/2000/svg">
<path d="M33.8764 26.2184C33.8764 26.3602 33.6459 26.6793 33.185 27.1757C32.7596 27.672 32.2986 28.0975 31.8023 28.452C31.3414 28.7711 30.7032 29.3561 29.8877 30.207C28.9659 31.1998 28.2923 31.8379 27.8668 32.1216C26.9805 32.6179 26.3246 33.0079 25.8991 33.2916C24.5518 34.2489 23.8782 35.1175 23.8782 35.8975C23.8782 36.2875 23.9491 36.6243 24.0909 36.9079C24.2682 37.1916 24.5164 37.3334 24.8355 37.3334C25.4736 37.1207 26.1473 36.9257 26.8564 36.7484C27.5655 36.5711 28.115 36.4825 28.505 36.4825C29.0368 36.4825 29.4091 36.5179 29.6218 36.5889C29.8346 36.6952 29.9409 36.9434 29.9409 37.3334C29.9409 37.6525 29.48 37.9361 28.5582 38.1843C27.6364 38.4679 26.6436 38.9111 25.58 39.5139C25.2255 39.7266 24.6227 39.8861 23.7718 39.9925C22.9209 40.1343 21.9636 40.2052 20.9 40.2052C19.9427 40.2052 18.95 39.7089 17.9218 38.7161C17.4255 38.2198 16.9646 37.9716 16.5391 37.9716C13.9155 39.2834 11.54 40.4534 9.41274 41.4816C7.28546 42.5452 5.33546 43.077 3.56273 43.077C2.78273 43.077 1.98501 42.7579 1.16955 42.1198C0.389553 41.517 -0.000447447 40.9852 -0.000447447 40.5243V37.9184C0.566825 37.2093 1.16955 36.5357 1.80773 35.8975C2.87137 34.8693 4.20092 33.6461 5.79637 32.2279C6.15092 31.9089 7.16137 31.2352 8.82774 30.207C10.5296 29.1789 11.6818 28.5229 12.2846 28.2393C13.4546 27.7075 15.0146 27.1579 16.9646 26.5907C18.2055 26.2361 19.4464 25.8816 20.6873 25.527C21.0418 25.4207 21.3432 25.2257 21.5914 24.942C21.8396 24.6584 21.9991 24.4989 22.07 24.4634L25.58 24.2507C26.1827 24.2507 26.8209 24.5166 27.4946 25.0484C28.1682 25.5802 28.8596 25.8461 29.5686 25.8461C30.1359 25.8461 30.5968 25.5802 30.9514 25.0484C31.3059 24.5166 31.625 24.2507 31.9086 24.2507C32.2277 24.2507 32.6355 24.4811 33.1318 24.942C33.6282 25.4029 33.8764 25.8284 33.8764 26.2184ZM25.3673 28.0798C25.3673 27.7252 25.2432 27.4239 24.995 27.1757C24.7468 26.9275 24.4809 26.8034 24.1973 26.8034C22.8855 26.8034 20.9709 27.4593 18.4536 28.7711C17 29.5511 15.5464 30.3134 14.0927 31.0579L10.4764 33.9298C9.83819 34.3907 9.3241 34.8339 8.9341 35.2593C8.57955 35.7202 8.3491 36.0216 8.24274 36.1634C8.13637 36.3052 7.94137 36.4116 7.65773 36.4825C7.3741 36.5534 7.1791 36.642 7.07273 36.7484L6.27501 38.9289C6.55864 39.0352 6.86001 39.1416 7.1791 39.2479C8.91637 39.2479 11.0791 38.4857 13.6673 36.9611C14.5182 36.4648 15.6527 35.6848 17.0709 34.6211C17.2482 34.5148 17.4255 34.3375 17.6027 34.0893C17.8155 33.8411 18.0105 33.6639 18.1877 33.5575C19.0386 33.2739 19.8896 33.0079 20.7405 32.7598C21.6977 32.1925 22.85 31.182 24.1973 29.7284C24.4809 29.4802 24.7646 29.2143 25.0482 28.9307C25.2609 28.647 25.3673 28.3634 25.3673 28.0798ZM84.9475 2.02067C84.9475 2.30431 84.593 2.96022 83.8839 3.9884C82.9266 5.37113 81.8807 6.34613 80.7462 6.9134C79.8953 7.37431 79.2394 7.90613 78.7784 8.50885C78.3175 9.07613 77.2007 10.122 75.428 11.6466L70.163 14.5184C69.5957 15.1566 68.8512 15.8834 67.9294 16.6989C67.0075 17.5143 65.7489 18.4539 64.1535 19.5175C61.2462 21.3966 58.7466 23.0984 56.6548 24.6229C54.5984 26.1475 53.2157 27.3175 52.5066 28.1329C51.833 28.9484 50.9821 29.622 49.9539 30.1539C47.8621 31.2529 46.763 31.8734 46.6566 32.0152C45.7348 33.1143 44.7244 34.0184 43.6253 34.7275C42.3134 35.5784 41.6575 36.3052 41.6575 36.9079C41.6575 37.5107 41.8171 37.8475 42.1362 37.9184C42.4553 38.0248 42.7921 38.0779 43.1466 38.0779C44.3875 38.0779 45.4689 37.8298 46.3907 37.3334C46.9225 36.9789 47.4544 36.6243 47.9862 36.2698C48.4825 36.057 48.8903 35.9152 49.2094 35.8443C49.5639 35.7734 49.7944 35.7379 49.9007 35.7379C50.2907 35.7379 50.5566 35.7025 50.6984 35.6316C51.2657 35.3479 52.5421 34.5679 54.5275 33.2916C54.8466 33.2561 55.2012 33.1498 55.5912 32.9725C55.9812 32.8307 56.3889 32.547 56.8144 32.1216C57.878 31.1643 59.0125 30.2602 60.218 29.4093C61.6007 28.452 62.3984 27.4593 62.6112 26.4311C62.8594 25.4029 63.4621 24.4457 64.4194 23.5593C65.3766 22.6729 66.2985 22.2298 67.1848 22.2298C68.1421 22.2298 68.7803 22.4602 69.0994 22.9211C69.4185 23.382 69.578 24.0379 69.578 24.8889C69.578 25.2789 69.5425 25.7752 69.4716 26.3779C69.4007 26.9807 69.3653 27.3352 69.3653 27.4416C69.4716 28.0443 69.6844 28.452 70.0035 28.6648C70.358 28.8775 70.7657 28.9839 71.2266 28.9839C71.6521 28.9484 71.918 28.9307 72.0244 28.9307C73.3716 28.9307 74.3821 29.0016 75.0557 29.1434C75.9421 29.5689 76.4739 29.7993 76.6512 29.8348C76.8639 29.8702 77.1121 29.8879 77.3957 29.8879C77.8921 29.8525 78.2644 29.8348 78.5125 29.8348C79.1862 29.8348 79.523 30.0475 79.523 30.4729C79.523 31.0402 78.7962 31.4479 77.3425 31.6961C75.8889 31.9089 73.9212 32.0152 71.4394 32.0152C70.6594 32.0152 70.0566 31.9266 69.6312 31.7493C69.2057 31.5366 68.8512 31.3593 68.5675 31.2175C68.3548 31.2175 68.1244 31.2707 67.8762 31.377C67.6635 31.4834 67.5039 31.5189 67.3975 31.4834C66.9366 31.0934 66.5466 30.792 66.2275 30.5793C65.9084 30.3311 65.5894 30.207 65.2703 30.207C64.6321 30.207 63.728 30.6148 62.558 31.4302C62.2034 31.6784 61.6894 32.0861 61.0157 32.6534C60.5194 32.7598 60.0762 32.8307 59.6862 32.8661C59.3316 32.937 59.1012 33.0079 58.9948 33.0789C57.8248 34.2134 56.7257 35.1175 55.6975 35.7911C54.7048 36.4648 53.8184 36.8016 53.0384 36.8016L49.4221 37.9184C49.3157 37.9893 49.1562 38.202 48.9434 38.5566C48.7307 38.9111 48.518 39.1239 48.3053 39.1948C48.128 39.3011 47.348 39.4429 45.9653 39.6202C44.5825 39.7975 43.8203 39.9216 43.6784 39.9925C43.5366 40.0634 43.2884 40.2407 42.9339 40.5243C42.5794 40.8079 42.3134 40.9852 42.1362 41.0561C41.9944 41.1625 41.5157 41.2689 40.7003 41.3752C38.6439 41.6589 36.5521 41.8007 34.4248 41.8007C33.9284 41.8007 33.6448 41.3752 33.5739 40.5243C33.503 39.6734 33.4498 38.8402 33.4144 38.0248C33.1662 36.3939 32.6521 35.5784 31.8721 35.5784C31.553 35.5784 31.0744 35.7202 30.4362 36.0039V33.132C31.1807 32.7775 31.6416 32.5116 31.8189 32.3343C32.0316 32.1216 32.2621 31.9089 32.5103 31.6961C32.723 31.5898 33.1839 31.4657 33.893 31.3239C35.5594 31.0048 36.4989 30.8098 36.7116 30.7389C36.9244 30.6325 37.1016 30.4907 37.2434 30.3134C37.3853 30.1361 37.5271 29.9766 37.6689 29.8348C38.0944 29.6575 38.6262 29.5157 39.2644 29.4093C39.938 29.3029 40.3634 29.2143 40.5407 29.1434C41.3207 28.6116 41.9057 28.2216 42.2957 27.9734C43.5366 27.1579 44.228 26.7325 44.3698 26.697C44.618 26.697 44.8307 26.697 45.008 26.697C45.2916 26.697 45.5398 26.6793 45.7525 26.6439C45.9653 26.5729 46.2844 26.4311 46.7098 26.2184C47.1707 25.9702 47.4721 25.5979 47.6139 25.1016C47.6139 25.0307 47.6316 24.9243 47.6671 24.7825C48.0216 24.5698 48.3407 24.3925 48.6244 24.2507C49.4044 23.8252 50.6098 23.2225 52.2407 22.4425C52.418 22.3716 52.7548 22.0702 53.2512 21.5384C53.7475 21.0066 54.2794 20.4393 54.8466 19.8366C55.0948 19.7657 55.3607 19.677 55.6444 19.5707C56.1762 19.3579 56.708 19.0211 57.2398 18.5602C57.7716 18.0993 58.2325 17.7979 58.6225 17.6561C59.0125 17.4789 59.2784 17.337 59.4203 17.2307L63.2494 13.3484C63.4266 13.2066 64.118 12.9407 65.3234 12.5507C65.5007 12.5152 65.7666 12.4266 66.1212 12.2848C66.6175 11.7529 67.1848 11.1857 67.823 10.5829C68.6385 9.80295 69.3121 9.21795 69.8439 8.82795C70.0921 8.65067 70.5707 8.42022 71.2798 8.13658C71.9889 7.81749 72.5562 7.48067 72.9816 7.12613C73.7971 6.31067 74.453 5.65476 74.9494 5.1584C75.4812 4.62658 75.818 4.32522 75.9598 4.25431C76.2789 4.07704 76.6689 3.91749 77.1298 3.77567C77.5907 3.63385 77.8921 3.49204 78.0339 3.35022C78.2112 3.17294 78.3175 2.99567 78.353 2.8184C78.4239 2.64113 78.4948 2.48158 78.5657 2.33976L82.3948 -0.000238435C83.033 -0.000238435 83.618 0.177035 84.1498 0.531582C84.6816 0.850673 84.9475 1.34704 84.9475 2.02067ZM106.937 22.1766C106.937 22.4602 105.501 23.8075 102.629 26.2184C99.757 28.6293 98.3211 30.1184 98.3211 30.6857C98.3211 31.182 98.6402 31.4302 99.2784 31.4302C99.562 31.4302 99.8456 31.377 100.129 31.2707L100.236 33.0789C99.3847 33.0789 98.7643 33.2384 98.3743 33.5575C97.9843 33.8766 97.222 34.0361 96.0875 34.0361C95.4138 34.0361 95.0061 33.8943 94.8643 33.6107C94.7225 33.327 94.4566 33.1852 94.0666 33.1852C93.712 33.1852 93.0029 33.6107 91.9393 34.4616C88.9966 36.8725 87.5075 38.0779 87.472 38.0779C87.1529 38.2552 85.132 40.0102 81.4093 43.3429C80.5938 44.052 79.2288 45.2043 77.3143 46.7998C75.8961 47.9698 73.9816 49.5475 71.5706 51.5329C70.6134 52.3129 69.6384 53.1107 68.6456 53.9261C67.4756 54.5998 66.2347 55.4507 64.9229 56.4789C63.4338 57.6843 61.927 58.9075 60.4025 60.1484C60.3316 60.1839 60.0479 60.2548 59.5516 60.3611C59.0552 60.4675 58.7361 60.5561 58.5943 60.627C56.4316 62.0098 54.8538 62.9493 53.8611 63.4457C53.2938 63.6229 52.7266 63.8002 52.1593 63.9775C51.6275 64.2611 50.8652 64.7575 49.8725 65.4666C49.2343 65.9275 48.7202 66.2289 48.3302 66.3707C47.9047 66.5125 47.0538 66.6366 45.7775 66.743C44.5011 66.8493 43.1893 66.9025 41.842 66.9025H41.2038C40.3884 66.9025 39.6438 66.8493 38.9702 66.743C38.2966 66.672 37.7115 66.477 37.2152 66.1579C36.3997 65.6261 35.7616 65.1652 35.3006 64.7752C34.3434 63.9598 33.8647 63.2507 33.8647 62.648C33.8647 62.1516 34.0243 61.6375 34.3434 61.1057C34.7334 60.6093 34.9638 60.2902 35.0347 60.1484C35.4956 59.3329 35.9565 58.5352 36.4175 57.7552C37.3393 56.6561 38.8461 55.6811 40.9379 54.8302C41.0443 54.7948 41.3456 54.5111 41.842 53.9793C43.1184 52.632 43.8452 51.8875 44.0225 51.7457C44.8734 50.9657 46.2384 50.3275 48.1175 49.8311C48.7202 49.6893 49.5888 49.512 50.7234 49.2993C51.0779 49.1929 51.3793 49.0157 51.6275 48.7675C51.8402 48.4484 52.0529 48.147 52.2656 47.8634C52.4429 47.757 52.7975 47.6684 53.3293 47.5975C53.8256 47.562 54.1979 47.5266 54.4461 47.4911C54.6943 47.4557 55.102 47.2252 55.6693 46.7998C56.2011 46.3743 56.7861 46.0375 57.4243 45.7893C59.6934 44.7966 61.4661 44.052 62.7425 43.5557C66.7843 41.9248 69.6561 40.9675 71.3579 40.6839C71.8188 40.5775 72.2443 40.4002 72.6343 40.152C72.9888 39.9039 73.2902 39.6911 73.5384 39.5139C73.8929 39.372 74.2297 39.2834 74.5488 39.2479C74.8679 39.2125 75.2579 39.1948 75.7188 39.1948H76.6761C77.2788 39.1948 77.7929 39.1239 78.2184 38.982C79.3175 38.592 80.6647 38.2198 82.2602 37.8652C83.8911 37.5461 84.7066 37.1029 84.7066 36.5357C84.7066 36.1811 84.4938 35.9329 84.0684 35.7911C83.6784 35.6848 83.1111 35.6316 82.3666 35.6316C82.0475 35.6316 81.6397 35.6493 81.1434 35.6848C80.647 35.7202 80.3634 35.7379 80.2925 35.7379C78.9452 35.7379 77.8816 35.4366 77.1016 34.8339C76.357 34.2666 75.9847 33.4689 75.9847 32.4407C75.9847 30.9516 77.2256 29.427 79.7075 27.867C81.8702 26.5907 84.0329 25.3143 86.1956 24.0379C86.7984 23.6125 87.3125 23.3111 87.7379 23.1339C88.1634 22.9566 88.5888 22.7793 89.0143 22.602L90.7161 21.0598L92.6306 20.9534C93.5525 20.7052 94.4034 20.2975 95.1834 19.7302C95.5379 19.482 96.7256 19.3579 98.7466 19.3579C99.2784 19.3579 99.8811 19.5707 100.555 19.9961C102.044 20.9179 103.232 21.3789 104.118 21.3789C104.26 21.3789 104.472 21.3257 104.756 21.2193C105.04 21.1129 105.323 21.0598 105.607 21.0598C105.962 21.0598 106.263 21.1839 106.511 21.432C106.795 21.6448 106.937 21.8929 106.937 22.1766ZM99.5975 23.1339C99.5975 22.7084 99.4911 22.4425 99.2784 22.3361C99.0656 22.1943 98.6756 22.1234 98.1084 22.1234C96.6547 22.1234 95.2897 22.3184 94.0134 22.7084C92.2406 23.2402 90.6984 24.162 89.3866 25.4739C88.3584 25.8639 87.3125 26.4134 86.2488 27.1225C85.2206 27.7961 84.1216 28.8775 82.9516 30.3666C82.9161 30.402 82.7034 30.5439 82.3134 30.792C81.9234 31.0048 81.7284 31.2884 81.7284 31.6429C81.7284 31.9975 81.8702 32.2811 82.1538 32.4939C82.4729 32.6711 82.8452 32.7598 83.2706 32.7598C85.1852 32.7598 86.8161 32.3875 88.1634 31.6429C89.5106 30.8629 90.8225 30.0829 92.0988 29.3029C94.2616 28.3102 95.9988 27.2289 97.3106 26.0589C98.1261 25.3498 98.8884 24.3748 99.5975 23.1339ZM73.9638 43.1302C73.6802 42.9884 73.3434 42.8466 72.9534 42.7048C72.8825 42.7048 72.7761 42.687 72.6343 42.6516C71.8188 42.6516 71.1452 42.8111 70.6134 43.1302C70.0816 43.4848 69.6916 43.7329 69.4434 43.8748C68.5925 44.0166 67.8656 44.1584 67.2629 44.3002C66.6602 44.442 66.2347 44.6193 65.9866 44.832C65.7384 45.0802 65.3306 45.2752 64.7634 45.417C64.1606 45.5943 63.3452 45.9489 62.317 46.4807L54.9779 49.0334C54.8361 49.0689 54.5347 49.2993 54.0738 49.7248C53.6129 50.1502 53.3116 50.3984 53.1697 50.4693C52.9216 50.5048 52.6379 50.5402 52.3188 50.5757C51.9997 50.6111 51.6806 50.6998 51.3616 50.8416C50.8297 51.267 50.1738 51.6925 49.3938 52.1179C48.5784 52.5789 47.4793 53.0929 46.0966 53.6602C44.3238 54.4048 42.6397 55.5393 41.0443 57.0639C39.4488 58.5884 38.6511 59.7939 38.6511 60.6802C38.6511 61.212 38.8638 61.6729 39.2893 62.0629C39.7147 62.4529 40.2111 62.648 40.7784 62.648L44.4479 62.1693C44.6606 62.1339 45.0506 61.868 45.6179 61.3716C45.937 61.1234 46.1675 60.9461 46.3093 60.8398C46.4511 60.7689 46.7525 60.698 47.2134 60.627C47.6388 60.5916 48.472 60.0775 49.7129 59.0848C49.9256 59.1202 50.2093 59.0848 50.5638 58.9784C50.9184 58.9075 51.3261 58.7302 51.787 58.4466C53.9143 57.0639 56.0238 55.6811 58.1156 54.2984C59.6402 53.0929 61.0584 52.0116 62.3702 51.0543C63.6466 50.097 64.8875 49.3348 66.0929 48.7675C66.412 48.5902 66.6779 48.3775 66.8906 48.1293C66.9616 48.0584 67.0325 47.9343 67.1034 47.757C67.3161 47.6861 67.5643 47.6329 67.8479 47.5975C68.0961 47.562 68.5747 47.3493 69.2838 46.9593C69.6738 46.7111 70.2766 46.1439 71.092 45.2575C71.3402 44.9739 71.6947 44.5661 72.1556 44.0343C72.4747 43.9279 72.7052 43.8393 72.847 43.7684C73.3434 43.5557 73.7156 43.3429 73.9638 43.1302Z" fill="#F5F1E8"/>
</svg>
