<svg width="500" height="500" viewBox="0 0 500 500" fill="none" xmlns="http://www.w3.org/2000/svg">
<path d="M184.728 223.751C184.728 224.32 183.803 225.6 181.954 227.592C180.247 229.584 178.397 231.291 176.405 232.714C174.556 233.994 171.995 236.342 168.723 239.756C165.023 243.74 162.32 246.301 160.613 247.439C157.056 249.431 154.424 250.996 152.717 252.134C147.31 255.975 144.607 259.461 144.607 262.591C144.607 264.156 144.892 265.508 145.461 266.646C146.172 267.784 147.168 268.353 148.449 268.353C151.01 267.5 153.713 266.717 156.558 266.006C159.404 265.294 161.609 264.939 163.174 264.939C165.308 264.939 166.802 265.081 167.655 265.365C168.509 265.792 168.936 266.788 168.936 268.353C168.936 269.634 167.086 270.772 163.387 271.768C159.688 272.906 155.705 274.684 151.436 277.103C150.014 277.957 147.595 278.597 144.18 279.024C140.766 279.593 136.925 279.877 132.656 279.877C128.815 279.877 124.831 277.885 120.705 273.902C118.714 271.91 116.864 270.914 115.157 270.914C104.629 276.178 95.0964 280.873 86.56 284.999C78.0236 289.267 70.1986 291.401 63.085 291.401C59.955 291.401 56.7539 290.121 53.4816 287.56C50.3516 285.141 48.7866 283.007 48.7866 281.158V270.701C51.063 267.855 53.4816 265.152 56.0425 262.591C60.3107 258.465 65.6459 253.557 72.0482 247.866C73.4709 246.585 77.5257 243.882 84.2125 239.756C91.0416 235.63 95.6655 232.998 98.0841 231.86C102.779 229.726 109.039 227.521 116.864 225.245C121.844 223.822 126.823 222.399 131.803 220.976C133.225 220.55 134.435 219.767 135.431 218.629C136.427 217.491 137.067 216.85 137.351 216.708L151.436 215.855C153.855 215.855 156.416 216.922 159.119 219.056C161.822 221.19 164.597 222.257 167.442 222.257C169.718 222.257 171.568 221.19 172.991 219.056C174.413 216.922 175.694 215.855 176.832 215.855C178.113 215.855 179.749 216.779 181.74 218.629C183.732 220.478 184.728 222.186 184.728 223.751ZM150.583 231.22C150.583 229.797 150.085 228.588 149.089 227.592C148.093 226.596 147.026 226.098 145.888 226.098C140.624 226.098 132.941 228.73 122.84 233.994C117.006 237.124 111.173 240.183 105.34 243.171L90.8282 254.695C88.2673 256.545 86.2043 258.323 84.6393 260.03C83.2166 261.88 82.2918 263.089 81.865 263.658C81.4382 264.227 80.6557 264.654 79.5175 264.939C78.3793 265.223 77.5968 265.579 77.17 266.006L73.9689 274.755C75.107 275.182 76.3164 275.609 77.5968 276.036C84.5682 276.036 93.2468 272.977 103.633 266.859C107.047 264.868 111.6 261.738 117.291 257.469C118.002 257.043 118.714 256.331 119.425 255.335C120.279 254.339 121.061 253.628 121.773 253.201C125.187 252.063 128.602 250.996 132.016 250C135.858 247.724 140.481 243.669 145.888 237.836C147.026 236.84 148.164 235.773 149.302 234.635C150.156 233.496 150.583 232.358 150.583 231.22ZM389.668 126.65C389.668 127.788 388.245 130.42 385.399 134.546C381.558 140.094 377.361 144.007 372.808 146.283C369.394 148.133 366.762 150.267 364.912 152.685C363.063 154.962 358.581 159.159 351.467 165.277L330.34 176.801C328.064 179.362 325.076 182.278 321.377 185.55C317.678 188.823 312.627 192.593 306.225 196.861C294.558 204.402 284.528 211.231 276.134 217.348C267.882 223.466 262.334 228.161 259.488 231.433C256.785 234.706 253.37 237.409 249.244 239.543C240.85 243.953 236.44 246.443 236.013 247.012C232.314 251.423 228.259 255.051 223.849 257.896C218.585 261.311 215.953 264.227 215.953 266.646C215.953 269.065 216.593 270.416 217.873 270.701C219.154 271.128 220.505 271.341 221.928 271.341C226.908 271.341 231.247 270.345 234.946 268.353C237.08 266.93 239.214 265.508 241.348 264.085C243.34 263.231 244.976 262.662 246.257 262.378C247.679 262.093 248.604 261.951 249.031 261.951C250.596 261.951 251.663 261.809 252.232 261.524C254.509 260.386 259.63 257.256 267.598 252.134C268.878 251.992 270.301 251.565 271.866 250.854C273.431 250.285 275.067 249.146 276.774 247.439C281.042 243.598 285.595 239.97 290.432 236.555C295.981 232.714 299.182 228.73 300.036 224.604C301.032 220.478 303.45 216.637 307.292 213.08C311.133 209.523 314.832 207.745 318.389 207.745C322.23 207.745 324.791 208.67 326.072 210.519C327.352 212.369 327.992 215.001 327.992 218.415C327.992 219.98 327.85 221.972 327.566 224.391C327.281 226.81 327.139 228.232 327.139 228.659C327.566 231.078 328.419 232.714 329.7 233.567C331.122 234.421 332.759 234.848 334.608 234.848C336.315 234.706 337.382 234.635 337.809 234.635C343.216 234.635 347.27 234.919 349.974 235.488C353.53 237.195 355.664 238.12 356.376 238.262C357.229 238.405 358.225 238.476 359.364 238.476C361.355 238.334 362.849 238.262 363.845 238.262C366.548 238.262 367.9 239.116 367.9 240.823C367.9 243.1 364.983 244.736 359.15 245.732C353.317 246.585 345.421 247.012 335.462 247.012C332.332 247.012 329.913 246.657 328.206 245.945C326.499 245.092 325.076 244.38 323.938 243.811C323.084 243.811 322.159 244.025 321.163 244.451C320.31 244.878 319.669 245.02 319.243 244.878C317.393 243.313 315.828 242.104 314.548 241.25C313.267 240.254 311.987 239.756 310.706 239.756C308.145 239.756 304.517 241.392 299.822 244.665C298.4 245.661 296.337 247.297 293.634 249.573C291.642 250 289.863 250.285 288.298 250.427C286.876 250.711 285.951 250.996 285.524 251.28C280.829 255.833 276.419 259.461 272.293 262.164C268.309 264.868 264.752 266.219 261.622 266.219L247.11 270.701C246.684 270.985 246.043 271.839 245.19 273.262C244.336 274.684 243.482 275.538 242.629 275.823C241.917 276.249 238.787 276.818 233.239 277.53C227.69 278.241 224.631 278.739 224.062 279.024C223.493 279.308 222.497 280.02 221.074 281.158C219.652 282.296 218.585 283.007 217.873 283.292C217.304 283.719 215.384 284.145 212.111 284.572C203.859 285.71 195.465 286.28 186.929 286.28C184.937 286.28 183.799 284.572 183.514 281.158C183.23 277.743 183.016 274.4 182.874 271.128C181.878 264.583 179.815 261.311 176.685 261.311C175.405 261.311 173.484 261.88 170.923 263.018V251.494C173.911 250.071 175.761 249.004 176.472 248.293C177.326 247.439 178.25 246.585 179.246 245.732C180.1 245.305 181.949 244.807 184.795 244.238C191.482 242.957 195.252 242.175 196.106 241.89C196.959 241.464 197.671 240.895 198.24 240.183C198.809 239.472 199.378 238.832 199.947 238.262C201.654 237.551 203.788 236.982 206.349 236.555C209.052 236.128 210.76 235.773 211.471 235.488C214.601 233.354 216.949 231.789 218.514 230.793C223.493 227.521 226.267 225.814 226.836 225.671C227.832 225.671 228.686 225.671 229.397 225.671C230.536 225.671 231.531 225.6 232.385 225.458C233.239 225.173 234.519 224.604 236.226 223.751C238.076 222.755 239.285 221.261 239.854 219.269C239.854 218.985 239.926 218.558 240.068 217.989C241.491 217.135 242.771 216.424 243.909 215.855C247.039 214.147 251.876 211.729 258.421 208.599C259.132 208.314 260.484 207.105 262.476 204.971C264.468 202.837 266.602 200.56 268.878 198.142C269.874 197.857 270.941 197.501 272.079 197.075C274.213 196.221 276.347 194.869 278.481 193.02C280.616 191.17 282.465 189.961 284.03 189.392C285.595 188.68 286.662 188.111 287.231 187.685L302.597 172.106C303.308 171.537 306.082 170.47 310.92 168.905C311.631 168.762 312.698 168.407 314.121 167.837C316.113 165.703 318.389 163.427 320.95 161.008C324.222 157.878 326.925 155.531 329.059 153.966C330.055 153.255 331.976 152.33 334.821 151.192C337.667 149.911 339.943 148.56 341.651 147.137C344.923 143.865 347.555 141.232 349.547 139.241C351.681 137.107 353.032 135.897 353.601 135.613C354.882 134.901 356.447 134.261 358.296 133.692C360.146 133.123 361.355 132.554 361.924 131.985C362.636 131.273 363.063 130.562 363.205 129.851C363.489 129.139 363.774 128.499 364.059 127.93L379.424 118.54C381.985 118.54 384.332 119.251 386.466 120.674C388.601 121.955 389.668 123.946 389.668 126.65ZM477.906 207.532C477.906 208.67 472.144 214.076 460.619 223.751C449.095 233.425 443.333 239.401 443.333 241.677C443.333 243.669 444.614 244.665 447.175 244.665C448.313 244.665 449.451 244.451 450.589 244.025L451.016 251.28C447.602 251.28 445.112 251.921 443.547 253.201C441.982 254.482 438.923 255.122 434.37 255.122C431.667 255.122 430.031 254.553 429.462 253.415C428.893 252.276 427.826 251.707 426.261 251.707C424.838 251.707 421.992 253.415 417.724 256.829C405.916 266.504 399.94 271.341 399.798 271.341C398.517 272.052 390.408 279.095 375.469 292.468C372.197 295.314 366.719 299.938 359.037 306.34C353.346 311.035 345.663 317.366 335.989 325.333C332.147 328.463 328.235 331.665 324.251 334.937C319.556 337.64 314.577 341.055 309.312 345.18C303.337 350.018 297.29 354.926 291.173 359.906C290.888 360.048 289.75 360.333 287.758 360.759C285.766 361.186 284.486 361.542 283.917 361.826C275.238 367.375 268.907 371.145 264.923 373.137C262.647 373.848 260.371 374.56 258.094 375.271C255.96 376.409 252.901 378.401 248.918 381.247C246.357 383.096 244.294 384.305 242.729 384.875C241.021 385.444 237.607 385.942 232.485 386.368C227.363 386.795 222.099 387.009 216.693 387.009H214.132C210.86 387.009 207.872 386.795 205.169 386.368C202.466 386.084 200.118 385.301 198.126 384.021C194.854 381.887 192.293 380.037 190.444 378.472C186.602 375.2 184.681 372.355 184.681 369.936C184.681 367.944 185.322 365.881 186.602 363.747C188.167 361.755 189.092 360.475 189.376 359.906C191.226 356.633 193.076 353.432 194.925 350.302C198.624 345.892 204.671 341.979 213.065 338.565C213.492 338.423 214.701 337.284 216.693 335.15C221.815 329.744 224.731 326.756 225.443 326.187C228.857 323.057 234.335 320.496 241.875 318.504C244.294 317.935 247.779 317.224 252.332 316.37C253.755 315.943 254.964 315.232 255.96 314.236C256.814 312.956 257.667 311.746 258.521 310.608C259.232 310.181 260.655 309.826 262.789 309.541C264.781 309.399 266.275 309.257 267.271 309.114C268.267 308.972 269.903 308.047 272.179 306.34C274.313 304.633 276.661 303.281 279.222 302.285C288.327 298.302 295.441 295.314 300.563 293.322C316.782 286.778 328.306 282.936 335.135 281.798C336.984 281.371 338.692 280.66 340.257 279.664C341.679 278.668 342.889 277.814 343.885 277.103C345.307 276.534 346.659 276.178 347.939 276.036C349.22 275.894 350.785 275.823 352.634 275.823H356.476C358.894 275.823 360.957 275.538 362.665 274.969C367.075 273.404 372.482 271.91 378.884 270.487C385.428 269.207 388.701 267.428 388.701 265.152C388.701 263.729 387.847 262.733 386.14 262.164C384.575 261.738 382.298 261.524 379.311 261.524C378.03 261.524 376.394 261.595 374.402 261.738C372.41 261.88 371.272 261.951 370.988 261.951C365.581 261.951 361.313 260.742 358.183 258.323C355.195 256.047 353.702 252.845 353.702 248.72C353.702 242.744 358.681 236.626 368.64 230.366C377.319 225.245 385.997 220.123 394.676 215.001C397.095 213.294 399.158 212.084 400.865 211.373C402.572 210.662 404.279 209.95 405.987 209.239L412.816 203.05L420.499 202.623C424.198 201.627 427.612 199.991 430.742 197.715C432.165 196.719 436.931 196.221 445.041 196.221C447.175 196.221 449.593 197.075 452.297 198.782C458.272 202.481 463.038 204.33 466.595 204.33C467.164 204.33 468.018 204.117 469.156 203.69C470.294 203.263 471.432 203.05 472.57 203.05C473.993 203.05 475.202 203.548 476.198 204.544C477.337 205.397 477.906 206.393 477.906 207.532ZM448.455 211.373C448.455 209.666 448.028 208.599 447.175 208.172C446.321 207.603 444.756 207.318 442.48 207.318C436.647 207.318 431.169 208.101 426.047 209.666C418.934 211.8 412.745 215.499 407.481 220.763C403.355 222.328 399.158 224.533 394.889 227.379C390.764 230.082 386.353 234.421 381.658 240.397C381.516 240.539 380.662 241.108 379.097 242.104C377.532 242.957 376.75 244.096 376.75 245.518C376.75 246.941 377.319 248.079 378.457 248.933C379.737 249.644 381.231 250 382.939 250C390.621 250 397.166 248.506 402.572 245.518C407.979 242.388 413.243 239.258 418.364 236.128C427.043 232.145 434.014 227.805 439.279 223.11C442.551 220.265 445.61 216.352 448.455 211.373ZM345.592 291.615C344.454 291.046 343.102 290.477 341.537 289.908C341.253 289.908 340.826 289.836 340.257 289.694C336.984 289.694 334.281 290.334 332.147 291.615C330.013 293.038 328.448 294.033 327.452 294.603C324.038 295.172 321.121 295.741 318.702 296.31C316.284 296.879 314.577 297.59 313.581 298.444C312.585 299.44 310.949 300.222 308.672 300.791C306.254 301.503 302.981 302.925 298.855 305.06L269.405 315.303C268.836 315.445 267.626 316.37 265.777 318.078C263.927 319.785 262.718 320.781 262.149 321.065C261.153 321.208 260.015 321.35 258.734 321.492C257.454 321.634 256.174 321.99 254.893 322.559C252.759 324.266 250.127 325.974 246.997 327.681C243.725 329.53 239.314 331.593 233.766 333.87C226.652 336.858 219.894 341.41 213.492 347.528C207.089 353.646 203.888 358.483 203.888 362.04C203.888 364.174 204.742 366.023 206.449 367.588C208.156 369.153 210.148 369.936 212.425 369.936L227.15 368.015C228.004 367.873 229.569 366.806 231.845 364.814C233.125 363.818 234.05 363.107 234.619 362.68C235.188 362.395 236.398 362.111 238.247 361.826C239.954 361.684 243.298 359.621 248.277 355.638C249.131 355.78 250.269 355.638 251.692 355.211C253.115 354.926 254.751 354.215 256.6 353.077C265.137 347.528 273.602 341.979 281.996 336.431C288.114 331.593 293.805 327.254 299.069 323.413C304.191 319.571 309.17 316.513 314.007 314.236C315.288 313.525 316.355 312.671 317.209 311.675C317.493 311.391 317.778 310.893 318.062 310.181C318.916 309.897 319.912 309.683 321.05 309.541C322.046 309.399 323.967 308.545 326.812 306.98C328.377 305.984 330.796 303.708 334.068 300.151C335.064 299.013 336.487 297.377 338.336 295.243C339.617 294.816 340.541 294.46 341.11 294.176C343.102 293.322 344.596 292.468 345.592 291.615Z" fill="#F5F1E8"/>
</svg>
